# xmcd
# 
# Track frame offsets:
#     150
#     11572
#     35328
#     56618
#     61180
#     81849
#     108080
#     128951
#     148987
#     173567
# 
# Disc length: 2532
# 
# Revision: 5
# Processed by: cddbd v1.5.2PL0 Copyright (c) Steve Scherf et al.
# Submitted via: fre:ac v1.0.17
# 
DISCID=7f09e20a
DTITLE=SatanaKozel - Rogatiya
DYEAR=2008
DGENRE=Pagan/Black/Folk Metal
TTITLE0=Veter
TTITLE1=Strah da tuman
TTITLE2=Kak pop Sivoldai v lesu zabludilsa
TTITLE3=T'ma
TTITLE4=Karlik Zlobniy 
TTITLE5=Kuznets
TTITLE6=Vyuga
TTITLE7=Pivovar
TTITLE8=Podopri-Gora
TTITLE9=Pustota
EXTD=
EXTT0=
EXTT1=
EXTT2=
EXTT3=
EXTT4=
EXTT5=
EXTT6=
EXTT7=
EXTT8=
EXTT9=
PLAYORDER=
